<svg width="36" height="36" viewBox="0 0 36 36" fill="none" xmlns="http://www.w3.org/2000/svg">
<foreignObject x="-2" y="-2" width="40" height="40"><div xmlns="http://www.w3.org/1999/xhtml" style="backdrop-filter:blur(2px);clip-path:url(#bgblur_0_4276_514_clip_path);height:100%;width:100%"></div></foreignObject><g filter="url(#filter0_d_4276_514)" data-figma-bg-blur-radius="4">
<rect x="2" y="2" width="32" height="32" rx="8" fill="#F9F9F9" fill-opacity="0.4" shape-rendering="crispEdges"/>
<path d="M11 14.5H12.75M11 18H13.625M11 21.5H12.75M14.5 11V12.75M18 11V13.625M21.5 11V12.75M11.875 11H24.125C24.3571 11 24.5796 11.0922 24.7437 11.2563C24.9078 11.4204 25 11.6429 25 11.875V16.25C25 16.4821 24.9078 16.7046 24.7437 16.8687C24.5796 17.0328 24.3571 17.125 24.125 17.125H18C17.7679 17.125 17.5454 17.2172 17.3813 17.3813C17.2172 17.5454 17.125 17.7679 17.125 18V24.125C17.125 24.3571 17.0328 24.5796 16.8687 24.7437C16.7046 24.9078 16.4821 25 16.25 25H11.875C11.6429 25 11.4204 24.9078 11.2563 24.7437C11.0922 24.5796 11 24.3571 11 24.125V11.875C11 11.6429 11.0922 11.4204 11.2563 11.2563C11.4204 11.0922 11.6429 11 11.875 11Z" stroke="#1A4FBA" stroke-linecap="round" stroke-linejoin="round"/>
</g>
<defs>
<filter id="filter0_d_4276_514" x="-2" y="-2" width="40" height="40" filterUnits="userSpaceOnUse" color-interpolation-filters="sRGB">
<feFlood flood-opacity="0" result="BackgroundImageFix"/>
<feColorMatrix in="SourceAlpha" type="matrix" values="0 0 0 0 0 0 0 0 0 0 0 0 0 0 0 0 0 0 127 0" result="hardAlpha"/>
<feOffset/>
<feGaussianBlur stdDeviation="1"/>
<feComposite in2="hardAlpha" operator="out"/>
<feColorMatrix type="matrix" values="0 0 0 0 0.101961 0 0 0 0 0.309804 0 0 0 0 0.729412 0 0 0 0.4 0"/>
<feBlend mode="normal" in2="BackgroundImageFix" result="effect1_dropShadow_4276_514"/>
<feBlend mode="normal" in="SourceGraphic" in2="effect1_dropShadow_4276_514" result="shape"/>
</filter>
<clipPath id="bgblur_0_4276_514_clip_path" transform="translate(2 2)"><rect x="2" y="2" width="32" height="32" rx="8"/>
</clipPath></defs>
</svg>
